<svg id="Capa_1" enable-background="new 0 0 512.002 512.002" height="512" viewBox="0 0 512.002 512.002" width="512" xmlns="http://www.w3.org/2000/svg"><g id="XMLID_1470_"><g id="XMLID_1471_"><path id="XMLID_1475_" d="m74.686 243.835c33.84 51.52 92.14 85.537 158.385 85.537 65.963 0 125.224-28.698 165.977-74.289 20.79-21.815 47.099-37.502 76.06-45.481 2.759-5.505 5.365-11.089 7.8-16.75 14.963-36.608 16.07-77.415 3.114-114.781l-5.829-16.811-15.027-4.397c-28.483 16.023-56.439 42.82-71.292 71.93-26.042 55.329-74.643 99.75-137.861 118.583-63.488 18.913-129.074 2.955-176.213-36.759-8.976-7.562-16.565-16.509-22.532-26.412-.265 21.039 5.748 41.863 17.418 59.63z" fill="#ffcd69"/></g><path id="XMLID_1472_" d="m106.897 265.281c-7.325-14.777 7.603-30.624 22.845-24.326 38.725 16.001 82.985 19.316 126.27 6.421 63.218-18.832 111.819-63.254 137.861-118.582 18.077 16.014 21.415 43.13 7.449 62.832-31.74 44.776-77.811 78.156-131.115 94.035-52.224 15.557-107.333 10.758-155.156-12.275-3.546-1.709-6.405-4.578-8.154-8.105z" fill="#fff3da"/><path id="XMLID_1406_" d="m501.843 232.78-.787-17.775-13.146-8.505c-31.872 7.224-66.315 24.925-88.861 48.583-40.754 45.591-100.014 74.289-165.977 74.289-66.245 0-124.545-34.017-158.385-85.537-14.651-22.305-20.397-49.428-15.982-75.746.023-.135.046-.271.069-.406.841-4.931-3.409-9.231-8.349-8.448l-22.522 3.565c-5.559.88-8.983 6.532-7.219 11.877 3.737 11.322 6.551 22.914 8.423 34.662 2.404 15.087-.39 30.477-7.33 44.086-20.155 39.522-14.602 89.19 17.94 123.094 46.508 48.456 111.93 78.619 184.397 78.619 97.227 0 184.17-44.032 241.975-113.243 24.792-30.813 37.503-69.606 35.754-109.115z" fill="#ffda8f"/><path id="XMLID_1408_" d="m85.05 303.96c-2.802-16.253 16.029-27.179 28.839-16.791 32.545 26.391 74.017 42.203 119.182 42.203 65.963 0 125.224-28.698 165.977-74.289 12.753 20.508 8.211 47.449-10.799 62.343-43.202 33.851-96.886 52.689-152.504 52.689-54.492 0-105.937-20.332-145.195-56.06-2.911-2.65-4.832-6.215-5.5-10.095z" fill="#fff3da"/><path id="XMLID_860_" d="m511.833 232.337-.787-17.775c-.143-3.233-1.842-6.196-4.559-7.954l-13.146-8.504c-.471-.305-.967-.557-1.475-.776.075-.174.154-.348.229-.522.024-.056.048-.113.071-.169 15.893-38.883 17.066-82.154 3.305-121.841l-5.829-16.811c-1.06-3.057-3.534-5.413-6.64-6.321l-15.027-4.397c-2.584-.755-5.364-.438-7.711.882-32.027 18.017-60.175 46.465-75.296 76.101-.048.095-.095.19-.141.286-25.756 54.723-73.748 96.003-131.668 113.257-58.093 17.306-120.491 4.288-166.916-34.823-7.353-6.195-13.688-13.428-18.89-21.512.171-3.898.556-7.803 1.21-11.696l.068-.398c.935-5.483-.841-11.12-4.751-15.076-3.91-3.957-9.525-5.8-15.02-4.93l-22.52 3.566c-5.545.877-10.401 4.129-13.323 8.921-2.927 4.801-3.594 10.621-1.83 15.967 3.552 10.761 6.258 21.898 8.043 33.102 2.025 12.706-.175 25.836-6.363 37.97-22.727 44.568-14.837 98.644 19.635 134.56 24.523 25.55 53.353 45.645 85.686 59.724 33.479 14.579 69.118 21.97 105.925 21.97 96.644 0 187.638-42.584 249.651-116.833.039-.047.078-.094.116-.142 26.333-32.727 39.811-73.861 37.953-115.826zm-310.052 32.97c19.061 0 38.281-2.744 57.087-8.346 63.316-18.861 115.789-63.968 143.984-123.759 12.66-24.728 36.793-49.521 63.619-65.536l5.964 1.745 4.139 11.938c12.157 35.06 11.132 73.281-2.888 107.637-1.839 4.271-3.799 8.541-5.841 12.745-29.376 9.712-56.919 26.396-76.036 46.455-.073.077-.146.155-.216.234-40.308 45.092-98.086 70.954-158.522 70.954-60.617 0-116.701-30.291-150.026-81.027-4.263-6.49-7.679-13.395-10.238-20.563.186.159.363.326.55.483 36.564 30.803 82.042 47.042 128.424 47.04zm256.572 70.25c-58.201 69.639-143.574 109.581-234.24 109.581-67.501 0-130.426-26.829-177.182-75.543-28.58-29.778-35.109-74.637-16.247-111.626 8.123-15.93 10.992-33.29 8.297-50.203-1.899-11.922-4.752-23.777-8.483-35.252l17.844-2.826c-3.871 27.852 2.465 56.007 17.985 79.636 37.035 56.385 99.369 90.047 166.743 90.047 66.065 0 129.23-28.248 173.323-77.501 19.193-20.085 49.402-36.957 79.683-44.646l5.217 3.375.559 12.623c1.642 37.072-10.254 73.412-33.499 102.335z" fill="#ffa96b"/></g></svg>